# xmcd
#
# Track frame offsets:
#	150
#	20072
#	39964
#	54167
#
# Disc length: 1016 seconds
#
# Revision: 0
# Processed by: cddbd v1.4PL0 Copyright (c) Steve Scherf et al.
# Submitted via: dBpowerAMP V4.0
#
DISCID=2603f604
DTITLE=Shawn Colvin - Sunny Came Home
DYEAR=1997
DGENRE=Country
TTITLE0=Sunny Came Home
TTITLE1=Tennessee (Live)
TTITLE2=Ricochet In Time (Live)
TTITLE3=Shotgun Down The Avalanche (Live)
EXTD=CD Single
EXTT0=
EXTT1=
EXTT2=
EXTT3=
PLAYORDER=
